<svg width="66" height="27" viewBox="0 0 66 27" fill="none" xmlns="http://www.w3.org/2000/svg">
<path d="M20.2232 15.599C19.5457 18.6477 17.0616 20.5673 13.7117 20.5673C9.30791 20.5673 6.93665 17.2174 6.93665 13.4912C6.93665 9.68963 9.34555 6.49031 13.6364 6.41504C17.0616 6.33976 19.3575 8.33463 20.0727 11.1199H26.509C25.7938 5.06003 20.8255 0.317505 13.7117 0.317505C5.7322 0.317505 0.613281 6.26448 0.613281 13.5665C0.613281 20.7932 5.7322 26.6649 13.7117 26.6649C21.0137 26.6649 25.9444 21.8847 26.5842 15.599H20.2232Z" fill="#111111"/>
<path d="M42.6335 9.57672H42.4829C41.3538 7.95824 39.2836 6.71615 36.6865 6.71615C31.53 6.71615 27.9919 10.9694 27.9919 16.7658C27.9919 22.7128 31.7558 26.6649 36.6865 26.6649C39.2836 26.6649 41.3538 25.4228 42.4829 23.8043H42.6335V26.1003H48.4299V7.28074H42.6335V9.57672ZM38.2674 21.1695C35.7832 21.1695 33.9012 19.3252 33.9012 16.6905C33.9012 14.0558 35.7832 12.2115 38.2674 12.2115C40.7892 12.2115 42.6335 14.131 42.6335 16.6905C42.6335 19.137 40.8645 21.1695 38.2674 21.1695Z" fill="#111111"/>
<path d="M61.3228 7.28074C59.4032 7.28074 57.86 8.40991 57.333 10.1037H57.1825V7.28074H51.6495V26.1003H57.4836V16.5776C57.4836 14.5827 58.9515 13.1148 60.9464 13.1148H65.5007V7.28074H61.3228Z" fill="#111111"/>
</svg>
